<svg viewBox="0 0 700 700" xmlns="http://www.w3.org/2000/svg">
  <title>Remix Guide</title>
  <style>
    path {
      fill: black;
    }
    @media (prefers-color-scheme: dark) {
      path {
        fill: white;
      }
    }
  </style>
  <path d="m690.722194,94.126262l-224.505968,-91.553608c-2.495352,-1.016424 -5.286429,-1.016424 -7.787151,0l-220.609777,89.967597l-220.609777,-89.967597c-3.172986,-1.296082 -6.792314,-0.925008 -9.642591,0.984153c-2.850277,1.919872 -4.555102,5.125212 -4.555102,8.556201l0,582.418622c0,4.184069 2.538444,7.964751 6.421281,9.545806l224.4922,91.564622c2.495352,1.011055 5.286429,1.011055 7.787151,0l220.596009,-89.973104l220.609777,89.973104c1.247676,0.510897 2.576029,0.752915 3.888206,0.752915c2.032903,0 4.033453,-0.586191 5.749016,-1.747779c2.861016,-1.909134 4.56584,-5.114336 4.56584,-8.545462l0,-582.432389c0,-4.189438 -2.527568,-7.964751 -6.415912,-9.545806l0.016796,0.002726zm-14.197005,576.636289l-210.297949,-85.772652c-2.495352,-1.011055 -5.286429,-1.011055 -7.787151,0l-220.609777,89.973104l-214.180373,-87.358663l0,-560.129104l210.297949,85.756131c2.495352,1.027176 5.286429,1.027176 7.787151,0l220.596009,-89.967597l214.207908,87.353156l-0.013767,560.145625z" fill="currentColor"/>
  <path d="m237.827834,262.591784c-5.695185,0 -10.309487,4.619671 -10.309487,10.309487l0,11.164584c0,5.689816 4.619671,10.309487 10.309487,10.309487c5.689816,0 10.309487,-4.619671 10.309487,-10.309487l0,-11.164584c0,-5.700554 -4.608933,-10.309487 -10.309487,-10.309487z" fill="currentColor" />
  <path d="m237.827834,611.803403c-5.695185,0 -10.309487,4.62504 -10.309487,10.314856l0,11.153845c0,5.689816 4.619671,10.314856 10.309487,10.314856c5.689816,0 10.309487,-4.62504 10.309487,-10.314856l0,-11.153845c0,-5.689816 -4.608933,-10.314856 -10.309487,-10.314856z" fill="currentColor" />
  <path d="m237.827834,320.786837c-5.695185,0 -10.309487,4.619671 -10.309487,10.314856l0,11.164584c0,5.689816 4.619671,10.314856 10.309487,10.314856c5.689816,0 10.309487,-4.62504 10.309487,-10.314856l0,-11.169953c0,-5.695185 -4.608933,-10.309487 -10.309487,-10.309487z" fill="currentColor" />
  <path d="m237.827834,146.187911c-5.695185,0 -10.309487,4.619671 -10.309487,10.309487l0,11.164584c0,5.689816 4.619671,10.309487 10.309487,10.309487c5.689816,0 10.309487,-4.619671 10.309487,-10.309487l0,-11.164584c0,-5.695185 -4.608933,-10.309487 -10.309487,-10.309487z" fill="currentColor" />
  <path d="m237.827834,378.98189c-5.695185,0 -10.309487,4.62504 -10.309487,10.314856l0,11.153845c0,5.689816 4.619671,10.314856 10.309487,10.314856c5.689816,0 10.309487,-4.62504 10.309487,-10.314856l0,-11.153845c0,-5.700554 -4.608933,-10.314856 -10.309487,-10.314856z" fill="currentColor" />
  <path d="m237.827834,553.594583c-5.695185,0 -10.309487,4.608933 -10.309487,10.314856l0,11.153845c0,5.689816 4.619671,10.314856 10.309487,10.314856c5.689816,0 10.309487,-4.62504 10.309487,-10.314856l0,-11.153845c0,-5.705924 -4.608933,-10.314856 -10.309487,-10.314856z" fill="currentColor" />
  <path d="m237.827834,495.39953c-5.695185,0 -10.309487,4.608933 -10.309487,10.298748l0,11.169953c0,5.689816 4.619671,10.298748 10.309487,10.298748c5.689816,0 10.309487,-4.608933 10.309487,-10.298748l0,-11.169953c0,-5.689816 -4.608933,-10.298748 -10.309487,-10.298748z" fill="currentColor" />
  <path d="m237.827834,437.19071c-5.695185,0 -10.309487,4.62504 -10.309487,10.314856l0,11.153845c0,5.705924 4.619671,10.314856 10.309487,10.314856c5.689816,0 10.309487,-4.608933 10.309487,-10.314856l0,-11.153845c0,-5.695185 -4.608933,-10.314856 -10.309487,-10.314856z" fill="currentColor" />
  <path d="m237.827834,204.382964c-5.695185,0 -10.309487,4.619671 -10.309487,10.314856l0,11.153845c0,5.695185 4.619671,10.314856 10.309487,10.314856c5.689816,0 10.309487,-4.619671 10.309487,-10.314856l0,-11.153845c0,-5.695185 -4.608933,-10.314856 -10.309487,-10.314856z" fill="currentColor"/>
  <path d="m462.320035,171.024409c-5.689816,0 -10.298748,4.62504 -10.298748,10.314856l0,11.164584c0,5.689816 4.608933,10.309487 10.298748,10.309487c5.705924,0 10.314856,-4.619671 10.314856,-10.309487l0,-11.164584c0,-5.695185 -4.608933,-10.314856 -10.314856,-10.314856z" fill="currentColor" />
  <path d="m462.320035,229.246996c-5.689816,0 -10.298748,4.619671 -10.298748,10.309487l0,11.164584c0,5.689816 4.608933,10.314856 10.298748,10.314856c5.705924,0 10.314856,-4.62504 10.314856,-10.314856l0,-11.164584c0,-5.700554 -4.608933,-10.309487 -10.314856,-10.309487z" fill="currentColor" />
  <path d="m462.320035,112.829356c-5.689816,0 -10.298748,4.619671 -10.298748,10.314856l0,11.153845c0,5.695185 4.608933,10.314856 10.298748,10.314856c5.705924,0 10.314856,-4.619671 10.314856,-10.314856l0,-11.153845c0,-5.695185 -4.608933,-10.314856 -10.314856,-10.314856z" fill="currentColor"/>
  <path d="m452.021975,64.935116l0,11.164584c0,5.689816 4.608933,10.309487 10.298748,10.309487c5.705924,0 10.314856,-4.619671 10.314856,-10.309487l0,-11.164584c0,-5.689816 -4.608933,-10.314856 -10.314856,-10.314856c-5.689816,0 -10.298748,4.62504 -10.298748,10.314856z" fill="currentColor" />
  <path d="m462.320035,345.637102c-5.689816,0 -10.298748,4.62504 -10.298748,10.314856l0,11.153845c0,5.705924 4.608933,10.314856 10.298748,10.314856c5.705924,0 10.314856,-4.608933 10.314856,-10.314856l0,-11.153845c0,-5.695185 -4.608933,-10.314856 -10.314856,-10.314856z" fill="currentColor" />
  <path d="m462.320035,403.845922c-5.689816,0 -10.298748,4.608933 -10.298748,10.298748l0,11.169953c0,5.689816 4.608933,10.298748 10.298748,10.298748c5.705924,0 10.314856,-4.608933 10.314856,-10.298748l0,-11.169953c0,-5.689816 -4.608933,-10.298748 -10.314856,-10.298748z" fill="currentColor"/>
  <path d="m462.320035,287.428282c-5.689816,0 -10.298748,4.62504 -10.298748,10.314856l0,11.164584c0,5.689816 4.608933,10.298748 10.298748,10.298748c5.705924,0 10.314856,-4.619671 10.314856,-10.298748l0,-11.164584c0,-5.689816 -4.608933,-10.314856 -10.314856,-10.314856z" fill="currentColor" />
  <path d="m462.320035,462.040975c-5.689816,0 -10.298748,4.608933 -10.298748,10.314856l0,11.153845c0,5.689816 4.608933,10.314856 10.298748,10.314856c5.705924,0 10.314856,-4.62504 10.314856,-10.314856l0,-11.153845c0,-5.705924 -4.608933,-10.314856 -10.314856,-10.314856z" fill="currentColor" />
  <path d="m462.320035,520.249795c-5.689816,0 -10.298748,4.62504 -10.298748,10.314856l0,11.153845c0,5.689816 4.608933,10.314856 10.298748,10.314856c5.705924,0 10.314856,-4.62504 10.314856,-10.314856l0,-11.153845c0,-5.689816 -4.608933,-10.314856 -10.314856,-10.314856z" fill="currentColor" />
</svg>
