<svg xmlns="http://www.w3.org/2000/svg">
  <symbol id="icon" viewBox="0 0 752 752">
    <title>Remix Guide</title>
    <path d="m741.224705,103.938563l-240.749398,-98.181759c-2.680192,-1.091141 -5.673934,-1.091141 -8.347143,0l-236.576874,96.477833l-236.576874,-96.477833c-3.402964,-1.391214 -7.283411,-0.995662 -10.338607,1.057045c-3.062004,2.059551 -4.889709,5.496558 -4.889709,9.179204l0,624.58669c0,4.487296 2.721044,8.538136 6.887807,10.236301l240.749398,98.188743c2.680192,1.084315 5.673934,1.084315 8.347143,0l236.559416,-96.484817l236.594332,96.484817c1.336639,0.545571 2.761897,0.81153 4.166763,0.81153c2.182282,0 4.323713,-0.627415 6.164861,-1.875366c3.075622,-2.052742 4.903327,-5.496558 4.903327,-9.172395l0,-624.58669c0,-4.494105 -2.714236,-8.544945 -6.880998,-10.236301l-0.013443,-0.007001zm-15.228316,618.37155l-225.525796,-91.977094c-2.680192,-1.084315 -5.673934,-1.084315 -8.347143,0l-236.576874,96.484817l-229.69832,-93.688004l0,-600.668875l225.525796,91.963127c2.680192,1.097967 5.673934,1.097967 8.347143,0l236.576874,-96.477833l229.69832,93.674037l0,600.689824z" fill="currentColor" />
    <path d="m255.553385,284.596632c-6.110391,0 -11.05457,4.950988 -11.05457,11.05457l0,11.975318c0,6.103582 4.950988,11.05457 11.05457,11.05457c6.103582,0 11.05457,-4.950988 11.05457,-11.05457l0,-11.975318c0,-6.110391 -4.944179,-11.05457 -11.05457,-11.05457z" fill="currentColor" />
    <path d="m255.553385,659.076297c-6.110391,0 -11.05457,4.957797 -11.05457,11.061379l0,11.961701c0,6.103582 4.950988,11.061379 11.05457,11.061379c6.103582,0 11.05457,-4.957797 11.05457,-11.061379l0,-11.961701c0,-6.096773 -4.944179,-11.061379 -11.05457,-11.061379z" fill="currentColor" />
    <path d="m255.553385,346.992452c-6.110391,0 -11.05457,4.950988 -11.05457,11.061379l0,11.975318c0,6.103582 4.950988,11.061379 11.05457,11.061379c6.103582,0 11.05457,-4.957797 11.05457,-11.061379l0,-11.982127c0,-6.110391 -4.944179,-11.05457 -11.05457,-11.05457z" fill="currentColor" />
    <path d="m255.553385,159.752619c-6.110391,0 -11.05457,4.950988 -11.05457,11.05457l0,11.975318c0,6.103582 4.950988,11.05457 11.05457,11.05457c6.103582,0 11.05457,-4.950988 11.05457,-11.05457l0,-11.975318c0,-6.103582 -4.944179,-11.05457 -11.05457,-11.05457z" fill="currentColor" />
    <path d="m255.553385,409.405729c-6.110391,0 -11.05457,4.957797 -11.05457,11.061379l0,11.961701c0,6.103582 4.950988,11.061379 11.05457,11.061379c6.103582,0 11.05457,-4.957797 11.05457,-11.061379l0,-11.961701c0,-6.110391 -4.944179,-11.061379 -11.05457,-11.061379z" fill="currentColor" />
    <path d="m255.553385,596.66302c-6.110391,0 -11.05457,4.944179 -11.05457,11.061379l0,11.961701c0,6.103582 4.950988,11.061379 11.05457,11.061379c6.103582,0 11.05457,-4.957797 11.05457,-11.061379l0,-11.961701c0,-6.1172 -4.944179,-11.061379 -11.05457,-11.061379z" fill="currentColor" />
    <path d="m255.553385,534.249742c-6.110391,0 -11.05457,4.944179 -11.05457,11.047761l0,11.982127c0,6.103582 4.950988,11.047761 11.05457,11.047761c6.103582,0 11.05457,-4.944179 11.05457,-11.047761l0,-11.982127c0,-6.103582 -4.944179,-11.047761 -11.05457,-11.047761z" fill="currentColor" />
    <path d="m255.553385,471.819007c-6.110391,0 -11.05457,4.957797 -11.05457,11.061379l0,11.961701c0,6.1172 4.950988,11.061379 11.05457,11.061379c6.103582,0 11.05457,-4.944179 11.05457,-11.061379l0,-11.961701c0,-6.103582 -4.944179,-11.061379 -11.05457,-11.061379z" fill="currentColor" />
    <path d="m255.553385,222.165896c-6.110391,0 -11.05457,4.950988 -11.05457,11.061379l0,11.961701c0,6.110391 4.950988,11.061379 11.05457,11.061379c6.103582,0 11.05457,-4.950988 11.05457,-11.061379l0,-11.961701c0,-6.110391 -4.944179,-11.061379 -11.05457,-11.061379z" fill="currentColor" />
    <path d="m496.302783,186.411381c-6.103582,0 -11.047761,4.957797 -11.047761,11.061379l0,11.975318c0,6.103582 4.944179,11.05457 11.047761,11.05457c6.1172,0 11.061379,-4.950988 11.061379,-11.05457l0,-11.975318c0,-6.110391 -4.944179,-11.061379 -11.061379,-11.061379z" fill="currentColor" />
    <path d="m496.302783,248.824659c-6.103582,0 -11.047761,4.950988 -11.047761,11.05457l0,11.975318c0,6.103582 4.944179,11.061379 11.047761,11.061379c6.1172,0 11.061379,-4.957797 11.061379,-11.061379l0,-11.975318c0,-6.110391 -4.944179,-11.05457 -11.061379,-11.05457z" fill="currentColor" />
    <path d="m496.302783,123.998104c-6.103582,0 -11.047761,4.950988 -11.047761,11.061379l0,11.961701c0,6.110391 4.944179,11.061379 11.047761,11.061379c6.1172,0 11.061379,-4.950988 11.061379,-11.061379l0,-11.961701c0,-6.110391 -4.944179,-11.061379 -11.061379,-11.061379z" fill="currentColor" />
    <path d="m485.251705,72.635904l0,11.975318c0,6.103582 4.944179,11.05457 11.047761,11.05457c6.1172,0 11.061379,-4.950988 11.061379,-11.05457l0,-11.975318c0,-6.103582 -4.944179,-11.061379 -11.061379,-11.061379c-6.103582,0 -11.047761,4.957797 -11.047761,11.061379z" fill="currentColor" />
    <path d="m496.302783,373.651214c-6.103582,0 -11.047761,4.957797 -11.047761,11.061379l0,11.961701c0,6.1172 4.944179,11.061379 11.047761,11.061379c6.1172,0 11.061379,-4.944179 11.061379,-11.061379l0,-11.961701c0,-6.110391 -4.944179,-11.061379 -11.061379,-11.061379z" fill="currentColor" />
    <path d="m496.302783,436.064491c-6.103582,0 -11.047761,4.944179 -11.047761,11.047761l0,11.982127c0,6.103582 4.944179,11.047761 11.047761,11.047761c6.1172,0 11.061379,-4.944179 11.061379,-11.047761l0,-11.982127c0,-6.103582 -4.944179,-11.047761 -11.061379,-11.047761z" fill="currentColor" />
    <path d="m496.302783,311.237936c-6.103582,0 -11.047761,4.957797 -11.047761,11.061379l0,11.975318c0,6.103582 4.944179,11.047761 11.047761,11.047761c6.1172,0 11.061379,-4.950988 11.061379,-11.047761l0,-11.975318c0,-6.096773 -4.944179,-11.061379 -11.061379,-11.061379z" fill="currentColor" />
    <path d="m496.302783,498.477769c-6.103582,0 -11.047761,4.944179 -11.047761,11.061379l0,11.961701c0,6.103582 4.944179,11.061379 11.047761,11.061379c6.1172,0 11.061379,-4.957797 11.061379,-11.061379l0,-11.961701c0,-6.1172 -4.944179,-11.061379 -11.061379,-11.061379z" fill="currentColor" />
    <path d="m496.302783,560.891046c-6.103582,0 -11.047761,4.957797 -11.047761,11.061379l0,11.961701c0,6.103582 4.944179,11.061379 11.047761,11.061379c6.1172,0 11.061379,-4.957797 11.061379,-11.061379l0,-11.961701c0,-6.096773 -4.944179,-11.061379 -11.061379,-11.061379z" fill="currentColor" />
  </symbol>
</svg>
